<svg viewBox="0 0 96 96" xmlns="http://www.w3.org/2000/svg" xmlns:xlink="http://www.w3.org/1999/xlink" id="Icons_MomWithBaby" overflow="hidden"><path d="M52.79 51.88 52.79 51.88C52.3327 51.9469 51.8719 51.987 51.41 52 47.5884 52.0444 44.4544 48.9825 44.41 45.1609 44.4094 45.1073 44.4094 45.0536 44.41 45 44.426 41.7748 46.6228 38.9692 49.75 38.18 50.41 37.94 54.04 36.31 55.66 29.37 56.1157 27.3517 57.441 25.6383 59.28 24.69 56.7445 23.146 53.97 22.0342 51.07 21.4 49.5436 21.1671 48.0037 21.0335 46.46 21 44.9196 21.0339 43.3831 21.1675 41.86 21.4 38.8585 21.9524 36.0007 23.1092 33.46 24.8 32.6565 25.2926 32.0811 26.0838 31.86 27L24.46 51.8C23.8324 53.9181 25.0408 56.1439 27.1589 56.7715 27.1925 56.7814 27.2262 56.7909 27.26 56.8 27.6379 56.9629 28.0497 57.0315 28.46 57 30.2118 57.0262 31.766 55.8809 32.26 54.2L38.46 33.2 38.46 40.2 31.06 65 36.46 65 36.46 93 44.46 93 44.46 65 48.46 65 48.46 93 56.46 93 56.46 65 61.86 65 57.39 50C55.9733 50.8809 54.4182 51.5165 52.79 51.88Z" fill="#002060"/><path d="M54.51 11C54.51 15.4183 50.9283 19 46.51 19 42.0917 19 38.51 15.4183 38.51 11 38.51 6.58172 42.0917 3 46.51 3 50.9283 3 54.51 6.58172 54.51 11Z" fill="#002060"/><path d="M58.41 40.3C59.5697 39.1126 61.1505 38.43 62.81 38.4 63.5702 38.4114 64.3196 38.5817 65.01 38.9 66.1103 36.7157 66.9172 34.3956 67.41 32 68.0175 29.2938 66.3162 26.6075 63.61 26 60.9038 25.3925 58.2175 27.0938 57.61 29.8 55.61 38.4 50.61 40 50.31 40.1L50.31 40.1C48.0214 40.6161 46.3994 42.654 46.41 45 46.41 47.7614 48.6486 50 51.41 50 51.7782 49.9861 52.1454 49.9528 52.51 49.9 54.2326 49.4708 55.8603 48.7247 57.31 47.7 55.8578 45.2881 56.319 42.1852 58.41 40.3Z" fill="#002060"/><path d="M65.06 41.39C66.5079 43.0585 66.3291 45.5848 64.6607 47.0327 63.1423 48.3504 60.8819 48.3364 59.38 47 57.8649 45.3923 57.9399 42.8607 59.5476 41.3456 61.0983 39.8843 63.5223 39.895 65.06 41.37Z" fill="#002060"/><path d="M71.51 19C71.51 22.3137 68.8237 25 65.51 25 62.1963 25 59.51 22.3137 59.51 19 59.51 15.6863 62.1963 13 65.51 13 68.8237 13 71.51 15.6863 71.51 19Z" fill="#002060"/></svg>